<svg version="1.1" width="165.28515625" height="85.40625" viewBox="2.71484375 -2 165.28515625 85.40625" xmlns="http://www.w3.org/2000/svg" xmlns:xlink="http://www.w3.org/1999/xlink">
  <defs>
    <radialGradient id="grad_1" cx="0.5081" cy="0.4802" r="0.67574">
      <stop offset="0" stop-color="#E5E5E5" stop-opacity="1"/>
      <stop offset="1" stop-color="#FF0000" stop-opacity="1"/>
    </radialGradient>
    <radialGradient id="grad_2" cx="0.6285000000000001" cy="0.5142" r="0.8170499999999999">
      <stop offset="0" stop-color="#CC0000" stop-opacity="1"/>
      <stop offset="1" stop-color="#660000" stop-opacity="1"/>
    </radialGradient>
    <radialGradient id="grad_3" cx="0.49229999999999996" cy="0.5161" r="0.67093">
      <stop offset="0" stop-color="#CC0000" stop-opacity="1"/>
      <stop offset="1" stop-color="#660000" stop-opacity="1"/>
    </radialGradient>
    <radialGradient id="grad_4" cx="0.6385000000000001" cy="0.4927" r="0.83005">
      <stop offset="0" stop-color="#660000" stop-opacity="1"/>
      <stop offset="1" stop-color="#000000" stop-opacity="1"/>
    </radialGradient>
    <radialGradient id="grad_5" cx="0.6385000000000001" cy="0.4927" r="0.83005">
      <stop offset="0" stop-color="#660000" stop-opacity="1"/>
      <stop offset="1" stop-color="#000000" stop-opacity="1"/>
    </radialGradient>
  <radialGradient id="grad_1-,0,0,1,-190,-130" cx="54.9916" cy="52.5228" r="40.5208" gradientUnits="userSpaceOnUse">
      <stop offset="0" stop-color="#E5E5E5" stop-opacity="1"/>
      <stop offset="1" stop-color="#FF0000" stop-opacity="1"/>
    </radialGradient><radialGradient id="grad_2-,0,0,1,-192,-133" cx="98.9987" cy="13.9985" r="14.2984" gradientUnits="userSpaceOnUse">
      <stop offset="0" stop-color="#CC0000" stop-opacity="1"/>
      <stop offset="1" stop-color="#660000" stop-opacity="1"/>
    </radialGradient><radialGradient id="grad_3-.2307692766189575,0,0,1,-235.9,-133.5" cx="12.5922" cy="13.9995" r="10.762" gradientUnits="userSpaceOnUse">
      <stop offset="0" stop-color="#CC0000" stop-opacity="1"/>
      <stop offset="1" stop-color="#660000" stop-opacity="1"/>
    </radialGradient><radialGradient id="grad_4-.1204819679260254,0,0,1,-471.45,-130.25" cx="59.7315" cy="47.2504" r="7.8324" gradientUnits="userSpaceOnUse">
      <stop offset="0" stop-color="#660000" stop-opacity="1"/>
      <stop offset="1" stop-color="#000000" stop-opacity="1"/>
    </radialGradient><radialGradient id="grad_5-.8795181512832642,0,0,0.8863636255264282,-438.1,-111.25" cx="32.7199" cy="46.0799" r="6.9424" gradientUnits="userSpaceOnUse">
      <stop offset="0" stop-color="#660000" stop-opacity="1"/>
      <stop offset="1" stop-color="#000000" stop-opacity="1"/>
    </radialGradient></defs>
  <!-- Exported by Scratch - http://scratch.mit.edu/ -->
  <g id="ID0.5589968436397612">
    <path id="ID0.8854961260221899" fill="none" stroke="#CC0000" stroke-width="4" stroke-linecap="round" d="M 73.5 35.5 L 96 15 "/>
    <path id="ID0.8854961260221899" fill="none" stroke="#CC0000" stroke-width="4" stroke-linecap="round" d="M 35.55 36.75 L 13.05 16.25 "/>
    <path id="ID0.13899665512144566" fill="url(#grad_1-,0,0,1,-190,-130)" stroke="none" stroke-linecap="round" d="M 53.75 26 C 62.783 25.964 73.69 24.596 80.5 30.5 C 86.608 35.782 86.521 46.013 86.5 54 C 86.354 62.194 86.242 72.322 80 77.5 C 73.163 83.15 62.576 81.014 53.5 81 C 45.07 80.979 34.883 82.58 28.5 77 C 22.4 71.529 22.73 61.201 22.5 53 C 22.282 45.292 22.39 35.565 28 30.5 C 34.767 24.87 45.328 26.031 53.75 26 Z " stroke-width="1"/>
    <path id="ID0.4845482390373945" fill="url(#grad_2-,0,0,1,-192,-133)" stroke="none" d="M 96.75 5 C 99.164 5 101.352 5.98 102.936 7.564 C 104.52 9.148 105.5 11.336 105.5 13.75 C 105.5 16.164 104.52 18.352 102.936 19.936 C 101.352 21.52 99.164 22.5 96.75 22.5 C 94.336 22.5 92.148 21.52 90.564 19.936 C 88.98 18.352 88 16.164 88 13.75 C 88 11.336 88.98 9.148 90.564 7.564 C 92.148 5.98 94.336 5 96.75 5 Z " stroke-width="1"/>
    <path id="ID0.025228738319128752" fill="#CC0000" stroke="none" d="M 166 38.5 C 166 38.5 166 38.528 166 38.573 C 166 38.619 166 38.681 166 38.75 C 166 38.819 166 38.881 166 38.927 C 166 38.972 166 39 166 39 C 166 39 166 38.972 166 38.927 C 166 38.881 166 38.819 166 38.75 C 166 38.681 166 38.619 166 38.573 C 166 38.528 166 38.5 166 38.5 Z " stroke-width="1"/>
    <path id="ID0.21106568025425076" fill="url(#grad_3-.2307692766189575,0,0,1,-235.9,-133.5)" stroke="none" d="M 12.7154 6 C 14.9222 6 16.9222 6.868 18.3708 8.271 C 19.8194 9.674 20.7154 11.612 20.7154 13.75 C 20.7154 15.888 19.8194 17.826 18.3708 19.229 C 16.9222 20.632 14.9222 21.5 12.7154 21.5 C 10.5086 21.5 8.5086 20.632 7.06 19.229 C 5.6114 17.826 4.7154 15.888 4.7154 13.75 C 4.7154 11.612 5.6114 9.674 7.06 8.271 C 8.5086 6.868 10.5086 6 12.7154 6 Z " stroke-width="1.121336928016988"/>
    <path id="ID0.44054458336904645" fill="#CC0000" stroke="none" d="M 39.25 0 C 39.319 0 39.381 0 39.427 0 C 39.472 0 39.5 0 39.5 0 C 39.5 0 39.472 0 39.427 0 C 39.381 0 39.319 0 39.25 0 C 39.181 0 39.119 0 39.073 0 C 39.028 0 39 0 39 0 C 39 0 39.028 0 39.073 0 C 39.119 0 39.181 0 39.25 0 Z " stroke-width="1"/>
    <path id="ID0.8655574508011341" fill="#E5E5E5" stroke="none" d="M 61.25 35.5 C 63.94 35.5 66.377 36.565 68.142 38.284 C 69.907 40.004 71 42.379 71 45 C 71 47.621 69.907 49.996 68.142 51.716 C 66.377 53.435 63.94 54.5 61.25 54.5 C 58.56 54.5 56.123 53.435 54.358 51.716 C 52.593 49.996 51.5 47.621 51.5 45 C 51.5 42.379 52.593 40.004 54.358 38.284 C 56.123 36.565 58.56 35.5 61.25 35.5 Z " stroke-width="1"/>
    <path id="ID0.8671734500676394" fill="url(#grad_4-.1204819679260254,0,0,1,-471.45,-130.25)" stroke="none" d="M 58.5115 43.85 C 59.7244 43.85 60.8249 44.237 61.6222 44.861 C 62.4174 45.486 62.9115 46.348 62.9115 47.3 C 62.9115 48.252 62.4174 49.114 61.6222 49.739 C 60.8249 50.363 59.7244 50.75 58.5115 50.75 C 57.2985 50.75 56.198 50.363 55.4007 49.739 C 54.6055 49.114 54.1115 48.252 54.1115 47.3 C 54.1115 46.348 54.6055 45.486 55.4007 44.861 C 56.198 44.237 57.2985 43.85 58.5115 43.85 Z " stroke-width="1.6577761875927988"/>
    <path id="ID0.2926499885506928" fill="#990000" stroke="#660000" stroke-width="2.115108013153076" stroke-linecap="round" d="M 59.7939 36.3615 C 57.866 36.8184 56.1369 38.0547 54.7176 39.4284 C 53.6104 40.5325 53.0594 41.8978 52.6025 43.2885 C 52.2662 44.2985 51.5217 46.0149 52.3381 46.3025 C 53.604 46.7636 55.2326 45.0567 56.727 44.5576 C 58.4508 44.0203 60.2116 43.6227 61.9619 43.1827 C 63.6635 42.7576 65.3788 42.2796 67.091 41.8079 C 68.0914 41.6112 70.3313 42.0533 70.105 41.1734 C 69.6968 39.4644 67.7298 37.6877 65.8219 36.7845 C 64.0029 35.9247 61.7514 35.8983 59.7939 36.3615 Z "/>
    <g id="ID0.9481976707465947">
      <path id="ID0.10024020355194807" fill="#660000" stroke="#660000" stroke-width="1.6625182264224099" stroke-linecap="round" d="M 8.4558 53.3296 L 5.8342 44.2003 L 14.6012 47.0575 L 28.8933 62.7805 L 24.1647 67.4471 L 8.4558 53.3296 Z "/>
      <path id="ID0.32873388193547726" fill="#660000" stroke="#660000" stroke-width="1.5628119435916255" stroke-linecap="round" d="M 21.3746 70.6995 L 32.6465 59.1951 L 35.0203 61.521 L 23.7484 73.0253 L 21.3746 70.6995 Z "/>
      <path id="ID0.45374365244060755" fill="#660000" stroke="#660000" stroke-width="1.6625182264224099" d="M 27.7676 69.1937 L 31.111 65.7814 L 37.4907 72.0321 L 34.1473 75.4445 L 27.7676 69.1937 Z "/>
    </g>
    <path id="ID0.9535660021938384" fill="#E5E5E5" stroke="none" d="M 34.85 36 C 37.402 36 39.715 36.98 41.389 38.564 C 43.064 40.148 44.1 42.336 44.1 44.75 C 44.1 47.164 43.064 49.352 41.389 50.936 C 39.715 52.52 37.402 53.5 34.85 53.5 C 32.298 53.5 29.985 52.52 28.311 50.936 C 26.636 49.352 25.6 47.164 25.6 44.75 C 25.6 42.336 26.636 40.148 28.311 38.564 C 29.985 36.98 32.298 36 34.85 36 Z " stroke-width="1"/>
    <path id="ID0.8671734500676394" fill="url(#grad_5-.8795181512832642,0,0,0.8863636255264282,-438.1,-111.25)" stroke="none" d="M 31.6386 43.0659 C 32.7137 43.0659 33.6891 43.4089 34.3958 43.962 C 35.1006 44.516 35.5386 45.28 35.5386 46.1239 C 35.5386 46.9677 35.1006 47.7317 34.3958 48.2857 C 33.6891 48.8388 32.7137 49.1818 31.6386 49.1818 C 30.5635 49.1818 29.588 48.8388 28.8813 48.2857 C 28.1765 47.7317 27.7386 46.9677 27.7386 46.1239 C 27.7386 45.28 28.1765 44.516 28.8813 43.962 C 29.588 43.4089 30.5635 43.0659 31.6386 43.0659 Z " stroke-width="1.4693925543672142"/>
    <path id="ID0.2926499885506928" fill="#990000" stroke="#660000" stroke-width="1.978649377822876" stroke-linecap="round" d="M 36.6783 36.6172 C 38.4818 37.0446 40.0994 38.2011 41.4271 39.4863 C 42.4629 40.5191 42.9783 41.7963 43.4057 43.0973 C 43.7203 44.0421 44.4168 45.6478 43.653 45.9169 C 42.4688 46.3482 40.9453 44.7515 39.5473 44.2845 C 37.9347 43.7819 36.2875 43.4099 34.6502 42.9984 C 33.0584 42.6007 31.4537 42.1535 29.852 41.7122 C 28.9161 41.5282 26.8207 41.9418 27.0324 41.1187 C 27.4143 39.5199 29.2544 37.8578 31.0392 37.013 C 32.7408 36.2086 34.8471 36.1839 36.6783 36.6172 Z "/>
  </g>
</svg>