<svg version="1.1" width="165.28515625" height="99.546875" viewBox="-1.28515625 -2 165.28515625 99.546875" xmlns="http://www.w3.org/2000/svg" xmlns:xlink="http://www.w3.org/1999/xlink">
  <defs>
    <radialGradient id="grad_1" cx="0.4301" cy="0.5431" r="0.74087">
      <stop offset="0" stop-color="#00CCCC" stop-opacity="1"/>
      <stop offset="1" stop-color="#001966" stop-opacity="1"/>
    </radialGradient>
    <radialGradient id="grad_2" cx="0.6" cy="0.5" r="0.78">
      <stop offset="0" stop-color="#001966" stop-opacity="1"/>
      <stop offset="1" stop-color="#000000" stop-opacity="1"/>
    </radialGradient>
    <radialGradient id="grad_3" cx="0.5538000000000001" cy="0.5322" r="0.71994">
      <stop offset="0" stop-color="#001966" stop-opacity="1"/>
      <stop offset="1" stop-color="#000000" stop-opacity="1"/>
    </radialGradient>
    <radialGradient id="grad_4" cx="0.3493" cy="0.5072" r="0.84591">
      <stop offset="0" stop-color="#001966" stop-opacity="1"/>
      <stop offset="1" stop-color="#000000" stop-opacity="1"/>
    </radialGradient>
    <radialGradient id="grad_5" cx="0.506" cy="0.5362" r="0.69706">
      <stop offset="0" stop-color="#001966" stop-opacity="1"/>
      <stop offset="1" stop-color="#000000" stop-opacity="1"/>
    </radialGradient>
  <radialGradient id="grad_1-,0,0,1,-194,-130" cx="45.9947" cy="56.018" r="44.4264" gradientUnits="userSpaceOnUse">
      <stop offset="0" stop-color="#00CCCC" stop-opacity="1"/>
      <stop offset="1" stop-color="#001966" stop-opacity="1"/>
    </radialGradient><radialGradient id="grad_2-,0,0,1,-196,-133" cx="94.5" cy="13.75" r="13.65" gradientUnits="userSpaceOnUse">
      <stop offset="0" stop-color="#001966" stop-opacity="1"/>
      <stop offset="1" stop-color="#000000" stop-opacity="1"/>
    </radialGradient><radialGradient id="grad_3-.2307692766189575,0,0,1,-239.9,-133.5" cx="9.5762" cy="14.2491" r="11.5481" gradientUnits="userSpaceOnUse">
      <stop offset="0" stop-color="#001966" stop-opacity="1"/>
      <stop offset="1" stop-color="#000000" stop-opacity="1"/>
    </radialGradient><radialGradient id="grad_4-.6305752992630005,0,0,0.9502650499343872,-379.5,-123.05" cx="27.0034" cy="45.7175" r="6.4255" gradientUnits="userSpaceOnUse">
      <stop offset="0" stop-color="#001966" stop-opacity="1"/>
      <stop offset="1" stop-color="#000000" stop-opacity="1"/>
    </radialGradient><radialGradient id="grad_5-.7923880815505981,0,0,1.0445661544799805,-393.85,-139.15" cx="54.1586" cy="46.5744" r="5.8203" gradientUnits="userSpaceOnUse">
      <stop offset="0" stop-color="#001966" stop-opacity="1"/>
      <stop offset="1" stop-color="#000000" stop-opacity="1"/>
    </radialGradient></defs>
  <!-- Exported by Scratch - http://scratch.mit.edu/ -->
  <g id="ID0.8611260508187115">
    <path id="ID0.8854961260221899" fill="none" stroke="#002699" stroke-width="4" stroke-linecap="round" d="M 69.5 35.5 L 92 15 "/>
    <path id="ID0.8854961260221899" fill="none" stroke="#002699" stroke-width="4" stroke-linecap="round" d="M 31.55 36.75 L 9.05 16.25 "/>
    <path id="ID0.13899665512144566" fill="url(#grad_1-,0,0,1,-194,-130)" stroke="none" stroke-linecap="round" d="M 49.75 26 C 58.783 25.964 69.69 24.596 76.5 30.5 C 82.608 35.782 82.521 46.013 82.5 54 C 82.354 62.194 82.242 72.322 76 77.5 C 69.163 83.15 58.576 81.014 49.5 81 C 41.07 80.979 30.883 82.58 24.5 77 C 18.4 71.529 18.73 61.201 18.5 53 C 18.282 45.292 18.39 35.565 24 30.5 C 30.767 24.87 41.328 26.031 49.75 26 Z " stroke-width="1"/>
    <path id="ID0.4845482390373945" fill="url(#grad_2-,0,0,1,-196,-133)" stroke="none" d="M 92.75 5 C 95.164 5 97.352 5.98 98.936 7.564 C 100.52 9.148 101.5 11.336 101.5 13.75 C 101.5 16.164 100.52 18.352 98.936 19.936 C 97.352 21.52 95.164 22.5 92.75 22.5 C 90.336 22.5 88.148 21.52 86.564 19.936 C 84.98 18.352 84 16.164 84 13.75 C 84 11.336 84.98 9.148 86.564 7.564 C 88.148 5.98 90.336 5 92.75 5 Z " stroke-width="1"/>
    <path id="ID0.025228738319128752" fill="#CC0000" stroke="none" d="M 162 38.5 C 162 38.5 162 38.528 162 38.573 C 162 38.619 162 38.681 162 38.75 C 162 38.819 162 38.881 162 38.927 C 162 38.972 162 39 162 39 C 162 39 162 38.972 162 38.927 C 162 38.881 162 38.819 162 38.75 C 162 38.681 162 38.619 162 38.573 C 162 38.528 162 38.5 162 38.5 Z " stroke-width="1"/>
    <path id="ID0.21106568025425076" fill="url(#grad_3-.2307692766189575,0,0,1,-239.9,-133.5)" stroke="none" d="M 8.7154 6 C 10.9222 6 12.9222 6.868 14.3708 8.271 C 15.8194 9.674 16.7154 11.612 16.7154 13.75 C 16.7154 15.888 15.8194 17.826 14.3708 19.229 C 12.9222 20.632 10.9222 21.5 8.7154 21.5 C 6.5086 21.5 4.5086 20.632 3.06 19.229 C 1.6114 17.826 0.7154 15.888 0.7154 13.75 C 0.7154 11.612 1.6114 9.674 3.06 8.271 C 4.5086 6.868 6.5086 6 8.7154 6 Z " stroke-width="1.121336928016988"/>
    <path id="ID0.44054458336904645" fill="#CC0000" stroke="none" d="M 35.25 0 C 35.319 0 35.381 0 35.427 0 C 35.472 0 35.5 0 35.5 0 C 35.5 0 35.472 0 35.427 0 C 35.381 0 35.319 0 35.25 0 C 35.181 0 35.119 0 35.073 0 C 35.028 0 35 0 35 0 C 35 0 35.028 0 35.073 0 C 35.119 0 35.181 0 35.25 0 Z " stroke-width="1"/>
    <path id="ID0.8655574508011341" fill="#E5E5E5" stroke="none" d="M 57.25 35.5 C 59.94 35.5 62.377 36.565 64.142 38.284 C 65.907 40.004 67 42.379 67 45 C 67 47.621 65.907 49.996 64.142 51.716 C 62.377 53.435 59.94 54.5 57.25 54.5 C 54.56 54.5 52.123 53.435 50.358 51.716 C 48.593 49.996 47.5 47.621 47.5 45 C 47.5 42.379 48.593 40.004 50.358 38.284 C 52.123 36.565 54.56 35.5 57.25 35.5 Z " stroke-width="1"/>
    <path id="ID0.9535660021938384" fill="#E5E5E5" stroke="none" d="M 30.85 36 C 33.402 36 35.715 36.98 37.389 38.564 C 39.064 40.148 40.1 42.336 40.1 44.75 C 40.1 47.164 39.064 49.352 37.389 50.936 C 35.715 52.52 33.402 53.5 30.85 53.5 C 28.298 53.5 25.985 52.52 24.311 50.936 C 22.636 49.352 21.6 47.164 21.6 44.75 C 21.6 42.336 22.636 40.148 24.311 38.564 C 25.985 36.98 28.298 36 30.85 36 Z " stroke-width="1"/>
    <path id="ID0.8671734500676394" fill="url(#grad_4-.6305752992630005,0,0,0.9502650499343872,-379.5,-123.05)" stroke="none" d="M 28.0215 42.3911 C 28.9542 42.3911 29.8005 42.7589 30.4136 43.3519 C 31.0251 43.9458 31.405 44.7649 31.405 45.6696 C 31.405 46.5742 31.0251 47.3933 30.4136 47.9873 C 29.8005 48.5802 28.9542 48.948 28.0215 48.948 C 27.0888 48.948 26.2426 48.5802 25.6295 47.9873 C 25.018 47.3933 24.6381 46.5742 24.6381 45.6696 C 24.6381 44.7649 25.018 43.9458 25.6295 43.3519 C 26.2426 42.7589 27.0888 42.3911 28.0215 42.3911 Z " stroke-width="1.3344998073610628"/>
    <path id="ID0.2926499885506928" fill="#003FFF" stroke="#001966" stroke-width="1.978649377822876" stroke-linecap="round" d="M 32.6783 36.6172 C 34.5521 37.0654 36.2804 38.1418 37.526 39.5357 C 38.6241 40.7457 40.0537 43.869 39.3562 44.0372 C 38.6251 44.2133 36.1538 41.0336 34.1128 40.2777 C 32.2202 39.5624 30.0803 39.6347 27.979 39.7831 C 26.2774 39.9038 23.2678 41.6954 23.0324 41.1187 C 22.7969 40.5419 25.2782 37.842 27.0392 37.013 C 28.7428 36.2126 30.8471 36.179 32.6783 36.6172 Z "/>
    <path id="ID0.2926499885506928" fill="#003FFF" stroke="#001966" stroke-width="2.0649120807647705" stroke-linecap="round" d="M 59.2627 36.7702 C 61.2181 37.2379 63.0218 38.3612 64.3217 39.8159 C 65.4677 41.0786 66.9596 44.3381 66.2317 44.5136 C 65.4687 44.6974 62.8897 41.379 60.7597 40.5902 C 58.7846 39.8438 56.5514 39.9191 54.3585 40.074 C 52.5827 40.2 49.4419 42.0698 49.1962 41.4678 C 48.9505 40.8659 51.5399 38.0483 53.3777 37.1831 C 55.1555 36.3479 57.3516 36.3128 59.2627 36.7702 Z "/>
    <path id="ID0.8671734500676394" fill="url(#grad_5-.7923880815505981,0,0,1.0445661544799805,-393.85,-139.15)" stroke="none" d="M 54.1126 42.709 C 55.1378 42.709 56.0681 43.1132 56.742 43.765 C 57.4142 44.4179 57.8318 45.3183 57.8318 46.3127 C 57.8318 47.3071 57.4142 48.2076 56.742 48.8604 C 56.0681 49.5122 55.1378 49.9165 54.1126 49.9165 C 53.0873 49.9165 52.1571 49.5122 51.4832 48.8604 C 50.811 48.2076 50.3934 47.3071 50.3934 46.3127 C 50.3934 45.3183 50.811 44.4179 51.4832 43.765 C 52.1571 43.1132 53.0873 42.709 54.1126 42.709 Z " stroke-width="1.4669310627922718"/>
    <path id="ID0.7673437856137753" fill="#001966" stroke="none" stroke-linecap="round" d="M 4.6366 58.7911 L 9.86 57.8238 L 10.6338 53.3742 L 29.2059 53.7611 L 30.9471 58.5976 L 35.7836 59.7584 L 35.7836 86.4558 L 20.3068 95.355 L 19.9199 95.5484 L 4.1336 85.7207 L 4.6366 58.7911 Z " stroke-width="0.7738386392593384"/>
  </g>
</svg>