<svg version="1.1" width="87.97203590087994" height="23.261098400879945" viewBox="-0.10906482543997198 0.359685174560028 87.97203590087994 23.261098400879945" xmlns="http://www.w3.org/2000/svg" xmlns:xlink="http://www.w3.org/1999/xlink">
  <!-- Exported by Scratch - http://scratch.mit.edu/ -->
  <path id="ID0.09814193472266197" fill="none" stroke="#FFFFFF" stroke-width="2.2060118329442484" d="M 43.8765 1.732 C 55.6335 1.732 66.2867 2.8811 74.0012 4.7386 C 81.7157 6.5962 86.4905 9.161 86.4905 11.9914 C 86.4905 14.8217 81.7157 17.3866 74.0012 19.2441 C 66.2867 21.1017 55.6335 22.2507 43.8765 22.2507 C 32.1194 22.2507 21.4662 21.1017 13.7517 19.2441 C 6.0372 17.3866 1.2624 14.8217 1.2624 11.9914 C 1.2624 9.161 6.0372 6.5962 13.7517 4.7386 C 21.4662 2.8811 32.1194 1.732 43.8765 1.732 Z "/>
  <path id="ID0.09814193472266197" fill="none" stroke="#FFFFFF" stroke-width="2.741567150879944" d="M 43.8237 3.75 C 53.5646 3.75 62.3909 4.702 68.7825 6.241 C 75.1741 7.78 79.13 9.905 79.13 12.25 C 79.13 14.595 75.1741 16.72 68.7825 18.259 C 62.3909 19.798 53.5646 20.75 43.8237 20.75 C 34.0829 20.75 25.2565 19.798 18.8649 18.259 C 12.4734 16.72 8.5174 14.595 8.5174 12.25 C 8.5174 9.905 12.4734 7.78 18.8649 6.241 C 25.2565 4.702 34.0829 3.75 43.8237 3.75 Z "/>
</svg>