<svg version="1.1" width="349.6640625" height="176.04296875" viewBox="-0.11328125 -0.0390625 349.6640625 176.04296875" xmlns="http://www.w3.org/2000/svg" xmlns:xlink="http://www.w3.org/1999/xlink">
  <!-- Exported by Scratch - http://scratch.mit.edu/ -->
  <path id="ID0.2606663992628455" fill="#FFFFFF" stroke="#FFFFFF" stroke-width="2" stroke-linecap="round" d="M 67 109 C 73.897 109 80.147 112.194 84.673 117.353 C 89.199 122.512 92 129.637 92 137.5 C 92 145.363 90.243 153.186 84.673 157.647 C 73.261 166.757 55.744 175.246 43 175 C 38.071 175.246 48.334 163.71 49.327 157.647 C 50.476 150.664 50.071 143.262 50 136 C 50.071 129.83 45.89 122.718 49.327 117.353 C 52.838 111.863 60.103 109 67 109 Z "/>
  <path id="ID0.7228939663618803" fill="#000000" stroke="#FFFFFF" stroke-width="1.8250000476837158" d="M 0.8875 0.9625 L 348.55 0.9625 L 348.55 145.1375 L 0.8875 145.1375 L 0.8875 0.9625 Z "/>
  <text id="ID0.06258264323696494" fill="#FFFFFF" text-anchor="start" font-family="Serif" font-size="22" transform="matrix(1, 0, 0, 1, 8, 3.05)" stroke-width="1" alignment-baseline="text-before-edge" xml:space="preserve"><tspan x="0" style="white-space: pre" dy="1.25em">I know you may feel like going</tspan><tspan x="0" style="white-space: pre" dy="1.25em">out and taking a stroll, but </tspan><tspan x="0" style="white-space: pre" dy="1.25em">something seems very wrong</tspan><tspan x="0" style="white-space: pre" dy="1.25em">today.</tspan></text>
</svg>